<?xml version="1.0" standalone="no"?>
<!DOCTYPE svg PUBLIC "-//W3C//DTD SVG 20010904//EN"
 "http://www.w3.org/TR/2001/REC-SVG-20010904/DTD/svg10.dtd">
<svg version="1.0" xmlns="http://www.w3.org/2000/svg"
 width="16.000000pt" height="16.000000pt" viewBox="0 0 16.000000 16.000000"
 preserveAspectRatio="xMidYMid meet">
<metadata>
Created by potrace 1.11, written by Peter Selinger 2001-2013
</metadata>
<g transform="translate(0.000000,16.000000) scale(0.006154,-0.006154)"
fill="#000000" stroke="none">
<path d="M0 1300 l0 -1300 1300 0 1300 0 0 1300 0 1300 -1300 0 -1300 0 0
-1300z m1580 795 c23 -46 19 -169 -7 -227 -44 -97 -145 -180 -275 -226 -64
-22 -94 -26 -236 -30 -155 -4 -162 -6 -167 -26 -2 -11 -18 -151 -35 -311 -36
-340 -48 -393 -103 -452 l-40 -43 66 0 c57 0 68 -3 78 -21 10 -19 5 -27 -39
-71 l-49 -50 -197 7 c-188 7 -198 9 -206 29 -8 18 0 29 48 74 56 52 58 53 104
46 l47 -6 31 48 c17 27 35 64 40 84 9 32 80 626 80 671 0 17 -8 19 -90 19
-155 0 -251 -32 -291 -97 -26 -42 -28 -131 -4 -191 l18 -44 -64 -64 c-76 -77
-103 -83 -118 -26 -6 20 -11 64 -11 97 1 148 60 266 181 357 126 95 197 108
581 108 167 0 332 5 367 10 126 21 177 69 169 161 -3 26 -14 60 -26 75 l-21
29 52 53 c61 62 92 66 117 17z m745 -345 c83 -31 148 -99 165 -170 25 -103 -9
-224 -85 -309 -79 -87 -225 -158 -363 -177 l-50 -6 -11 -72 c-17 -111 -30
-145 -73 -192 l-41 -44 56 0 c47 0 58 -3 68 -21 10 -19 5 -27 -39 -71 l-50
-50 -188 8 c-185 9 -189 9 -192 32 -3 16 11 35 50 72 51 48 55 50 98 44 54 -6
66 4 105 88 22 49 31 101 66 409 21 193 38 353 36 355 -5 6 -101 -22 -148 -43
-54 -24 -114 -75 -135 -114 -19 -37 -18 -124 2 -182 l15 -46 -38 -34 c-91 -82
-101 -89 -121 -78 -34 18 -43 146 -17 246 39 148 159 269 335 336 101 38 176
48 340 45 134 -2 163 -6 215 -26z"/>
<path d="M2029 1435 l-25 -227 86 4 c171 9 248 91 238 254 -7 115 -80 181
-211 191 l-62 5 -26 -227z"/>
</g>
</svg>
